<svg width="12" height="13" viewBox="0 0 12 13" fill="none" xmlns="http://www.w3.org/2000/svg">
<path d="M10.6667 4.16655L7.16666 1.09821C6.84581 0.811241 6.43045 0.652588 5.99999 0.652588C5.56953 0.652588 5.15417 0.811241 4.83333 1.09821L1.33333 4.16655C1.14804 4.33226 1.00019 4.53554 0.899603 4.76286C0.79902 4.99018 0.748018 5.23631 0.749994 5.48488V10.5832C0.749994 11.0473 0.934369 11.4925 1.26256 11.8207C1.59075 12.1488 2.03587 12.3332 2.49999 12.3332H9.49999C9.96412 12.3332 10.4092 12.1488 10.7374 11.8207C11.0656 11.4925 11.25 11.0473 11.25 10.5832V5.47905C11.2511 5.23146 11.1997 4.98645 11.0992 4.7602C10.9986 4.53394 10.8512 4.33161 10.6667 4.16655ZM7.16666 11.1665H4.83333V8.24988C4.83333 8.09517 4.89479 7.9468 5.00418 7.8374C5.11358 7.72801 5.26195 7.66655 5.41666 7.66655H6.58333C6.73804 7.66655 6.88641 7.72801 6.99581 7.8374C7.1052 7.9468 7.16666 8.09517 7.16666 8.24988V11.1665ZM10.0833 10.5832C10.0833 10.7379 10.0219 10.8863 9.91247 10.9957C9.80308 11.1051 9.6547 11.1665 9.49999 11.1665H8.33333V8.24988C8.33333 7.78575 8.14895 7.34063 7.82076 7.01244C7.49257 6.68426 7.04746 6.49988 6.58333 6.49988H5.41666C4.95253 6.49988 4.50741 6.68426 4.17922 7.01244C3.85103 7.34063 3.66666 7.78575 3.66666 8.24988V11.1665H2.49999C2.34528 11.1665 2.19691 11.1051 2.08752 10.9957C1.97812 10.8863 1.91666 10.7379 1.91666 10.5832V5.47905C1.91677 5.39622 1.93451 5.31437 1.9687 5.23894C2.0029 5.1635 2.05277 5.09621 2.11499 5.04155L5.61499 1.97905C5.72145 1.88553 5.8583 1.83395 5.99999 1.83395C6.14169 1.83395 6.27854 1.88553 6.38499 1.97905L9.88499 5.04155C9.94722 5.09621 9.99708 5.1635 10.0313 5.23894C10.0655 5.31437 10.0832 5.39622 10.0833 5.47905V10.5832Z" fill="#A30000"/>
</svg>
