<svg width="13" height="10" viewBox="0 0 13 10" fill="none" xmlns="http://www.w3.org/2000/svg">
<path d="M12.5358 3.44413L11.9525 3.1233L6.70247 0.206631H6.6383C6.60254 0.19151 6.56543 0.179792 6.52747 0.171631H6.41664H6.31164C6.27178 0.179797 6.23274 0.19151 6.19497 0.206631H6.1308L0.880803 3.1233C0.791029 3.17418 0.716358 3.24795 0.664406 3.33711C0.612455 3.42627 0.585083 3.52761 0.585083 3.6308C0.585083 3.73399 0.612455 3.83533 0.664406 3.92448C0.716358 4.01364 0.791029 4.08742 0.880803 4.1383L2.3333 4.9433V7.7083C2.3333 8.17243 2.51768 8.61755 2.84587 8.94573C3.17405 9.27392 3.61917 9.4583 4.0833 9.4583H8.74997C9.2141 9.4583 9.65922 9.27392 9.98741 8.94573C10.3156 8.61755 10.5 8.17243 10.5 7.7083V4.9433L11.6666 4.28996V5.9583C11.6666 6.11301 11.7281 6.26138 11.8375 6.37078C11.9469 6.48017 12.0953 6.54163 12.25 6.54163C12.4047 6.54163 12.5531 6.48017 12.6624 6.37078C12.7718 6.26138 12.8333 6.11301 12.8333 5.9583V3.95163C12.8331 3.84827 12.8055 3.74681 12.7532 3.65763C12.7009 3.56846 12.6259 3.49478 12.5358 3.44413ZM9.3333 7.7083C9.3333 7.86301 9.27184 8.01138 9.16245 8.12078C9.05305 8.23017 8.90468 8.29163 8.74997 8.29163H4.0833C3.92859 8.29163 3.78022 8.23017 3.67082 8.12078C3.56143 8.01138 3.49997 7.86301 3.49997 7.7083V5.5908L6.1308 7.04913L6.2183 7.08413H6.2708C6.31922 7.09023 6.36822 7.09023 6.41664 7.08413C6.46506 7.09023 6.51405 7.09023 6.56247 7.08413H6.61497C6.64594 7.0776 6.67554 7.06576 6.70247 7.04913L9.3333 5.5908V7.7083ZM6.41664 5.87663L2.3683 3.62496L6.41664 1.3733L10.465 3.62496L6.41664 5.87663Z" fill="#0055A3"/>
</svg>
