<svg width="14" height="13" viewBox="0 0 14 13" fill="none" xmlns="http://www.w3.org/2000/svg">
<path d="M5.25146 0.810791C4.53193 0.810791 3.93646 1.40628 3.93646 2.12579V2.56155H1.75079C1.03101 2.56155 0.439209 3.15593 0.439209 3.87569V4.75065C0.439209 5.2476 0.720251 5.70147 1.16293 5.92295C1.21226 5.94763 1.26142 5.97261 1.31075 5.99729V10.8736C1.31075 11.5931 1.90623 12.1886 2.62574 12.1886H11.3736C12.0931 12.1886 12.6886 11.5931 12.6886 10.8736V5.99729C12.7381 5.9725 12.7877 5.94774 12.8372 5.92295C13.28 5.7015 13.5601 5.2476 13.5601 4.75065V3.87569C13.5601 3.15593 12.9692 2.56155 12.2494 2.56155H10.0629V2.12579C10.0629 1.40628 9.46824 0.810791 8.74871 0.810791H5.25146ZM5.25146 1.68575H8.74871C8.99866 1.68575 9.1879 1.87585 9.1879 2.12579V2.56155H4.81142V2.12579C4.81142 1.87585 5.00152 1.68575 5.25146 1.68575ZM1.75079 3.43651H12.2494C12.4964 3.43651 12.6886 3.62872 12.6886 3.87569V4.75065C12.6886 4.91609 12.593 5.06713 12.4433 5.14199C10.6941 6.01713 8.94452 6.89128 7.19533 7.76685C7.07101 7.82902 6.9283 7.82902 6.80399 7.76685C5.0548 6.89128 3.30604 6.01713 1.55683 5.14199C1.40713 5.06709 1.31075 4.91609 1.31075 4.75065V3.87569C1.31075 3.62872 1.50381 3.43651 1.75079 3.43651ZM6.99966 6.06223C6.75805 6.06223 6.56218 6.25808 6.56218 6.4997C6.56218 6.74131 6.75804 6.93718 6.99966 6.93718C7.24128 6.93718 7.43714 6.74131 7.43714 6.4997C7.43713 6.25808 7.24127 6.06223 6.99966 6.06223ZM2.18655 6.43477C3.5947 7.13917 5.00224 7.84396 6.41009 8.54867C6.77994 8.73381 7.21938 8.73381 7.58923 8.54867C8.99712 7.84394 10.4054 7.13919 11.8136 6.43477V10.8736C11.8136 11.1235 11.6235 11.3128 11.3736 11.3128H2.62574C2.37583 11.3128 2.18655 11.1235 2.18655 10.8736V6.43477Z" fill="#A36200"/>
</svg>
